<svg width="32" height="32" viewBox="0 0 32 32" fill="none" xmlns="http://www.w3.org/2000/svg">
<rect width="32" height="32" rx="16" fill="#837EDE"/>
<path d="M13.6 15.2222C14.2329 15.2222 14.8516 15.0398 15.3778 14.6979C15.9041 14.3561 16.3142 13.8702 16.5564 13.3017C16.7986 12.7332 16.862 12.1077 16.7385 11.5042C16.615 10.9007 16.3103 10.3463 15.8627 9.91122C15.4152 9.47613 14.845 9.17982 14.2243 9.05978C13.6035 8.93974 12.9601 9.00135 12.3754 9.23682C11.7907 9.47229 11.2909 9.87105 10.9393 10.3827C10.5877 10.8943 10.4 11.4958 10.4 12.1111C10.4 12.9362 10.7371 13.7276 11.3373 14.311C11.9374 14.8944 12.7513 15.2222 13.6 15.2222ZM13.6 10.5556C13.9165 10.5556 14.2258 10.6468 14.4889 10.8177C14.752 10.9886 14.9571 11.2316 15.0782 11.5158C15.1993 11.8001 15.231 12.1128 15.1693 12.4146C15.1075 12.7163 14.9551 12.9935 14.7314 13.2111C14.5076 13.4286 14.2225 13.5768 13.9121 13.6368C13.6018 13.6968 13.2801 13.666 12.9877 13.5483C12.6953 13.4305 12.4455 13.2311 12.2696 12.9753C12.0938 12.7195 12 12.4188 12 12.1111C12 11.6986 12.1686 11.3029 12.4686 11.0112C12.7687 10.7194 13.1757 10.5556 13.6 10.5556ZM20 16.7778C20.4747 16.7778 20.9387 16.6409 21.3334 16.3845C21.728 16.1282 22.0357 15.7637 22.2173 15.3374C22.399 14.911 22.4465 14.4419 22.3539 13.9892C22.2613 13.5366 22.0327 13.1209 21.6971 12.7945C21.3614 12.4682 20.9338 12.246 20.4682 12.1559C20.0027 12.0659 19.5201 12.1121 19.0816 12.2887C18.643 12.4653 18.2682 12.7644 18.0045 13.1481C17.7408 13.5318 17.6 13.983 17.6 14.4444C17.6 15.0633 17.8529 15.6568 18.3029 16.0944C18.753 16.5319 19.3635 16.7778 20 16.7778ZM20 13.6667C20.1582 13.6667 20.3129 13.7123 20.4445 13.7977C20.576 13.8832 20.6786 14.0047 20.7391 14.1468C20.7997 14.2889 20.8155 14.4453 20.7846 14.5962C20.7538 14.7471 20.6776 14.8856 20.5657 14.9944C20.4538 15.1032 20.3113 15.1773 20.1561 15.2073C20.0009 15.2373 19.84 15.2219 19.6939 15.163C19.5477 15.1041 19.4227 15.0045 19.3348 14.8766C19.2469 14.7487 19.2 14.5983 19.2 14.4444C19.2 14.2382 19.2843 14.0403 19.4343 13.8945C19.5843 13.7486 19.7878 13.6667 20 13.6667ZM20 17.5556C19.1135 17.5565 18.2524 17.8438 17.552 18.3722C16.7684 17.6134 15.7712 17.0971 14.6863 16.8886C13.6013 16.68 12.4771 16.7884 11.4554 17.2002C10.4337 17.612 9.56033 18.3087 8.94539 19.2024C8.33046 20.0962 8.0015 21.147 8 22.2222C8 22.4285 8.08429 22.6263 8.23431 22.7722C8.38434 22.9181 8.58783 23 8.8 23C9.01217 23 9.21566 22.9181 9.36569 22.7722C9.51571 22.6263 9.6 22.4285 9.6 22.2222C9.6 21.1908 10.0214 20.2017 10.7716 19.4724C11.5217 18.7431 12.5391 18.3333 13.6 18.3333C14.6609 18.3333 15.6783 18.7431 16.4284 19.4724C17.1786 20.2017 17.6 21.1908 17.6 22.2222C17.6 22.4285 17.6843 22.6263 17.8343 22.7722C17.9843 22.9181 18.1878 23 18.4 23C18.6122 23 18.8157 22.9181 18.9657 22.7722C19.1157 22.6263 19.2 22.4285 19.2 22.2222C19.2019 21.311 18.9651 20.4143 18.512 19.6167C18.8655 19.3451 19.2906 19.1757 19.7385 19.128C20.1864 19.0802 20.6391 19.1561 21.0448 19.3468C21.4504 19.5375 21.7927 19.8353 22.0323 20.2063C22.272 20.5773 22.3994 21.0064 22.4 21.4444C22.4 21.6507 22.4843 21.8486 22.6343 21.9944C22.7843 22.1403 22.9878 22.2222 23.2 22.2222C23.4122 22.2222 23.6157 22.1403 23.7657 21.9944C23.9157 21.8486 24 21.6507 24 21.4444C24 20.413 23.5786 19.4239 22.8284 18.6946C22.0783 17.9653 21.0609 17.5556 20 17.5556Z" fill="white"/>
</svg>
