<svg width="32" height="32" viewBox="0 0 32 32" fill="none" xmlns="http://www.w3.org/2000/svg">
<rect width="32" height="32" rx="16" fill="#837EDE"/>
<path fill-rule="evenodd" clip-rule="evenodd" d="M8 11.7873C8 10.8004 8.88 10 9.965 10H12.772C13.857 10 14.737 10.8004 14.737 11.7873V12.2976C14.737 13.2854 13.857 14.0849 12.772 14.0849H9.965C9.44385 14.0849 8.94404 13.8966 8.57554 13.5614C8.20703 13.2262 8 12.7716 8 12.2976V11.7873ZM9.965 11.5326C9.92823 11.5326 9.89182 11.5392 9.85785 11.552C9.82388 11.5648 9.79301 11.5836 9.76701 11.6072C9.74101 11.6309 9.72039 11.659 9.70631 11.6898C9.69224 11.7207 9.685 11.7539 9.685 11.7873V12.2976C9.68487 12.3311 9.69201 12.3643 9.70603 12.3953C9.72004 12.4263 9.74064 12.4545 9.76666 12.4783C9.79267 12.502 9.82358 12.5208 9.85762 12.5337C9.89165 12.5466 9.92815 12.5532 9.965 12.5532H12.772C12.8088 12.5532 12.8452 12.5466 12.8792 12.5338C12.9131 12.521 12.944 12.5022 12.97 12.4786C12.996 12.4549 13.0166 12.4269 13.0307 12.396C13.0448 12.3651 13.052 12.3319 13.052 12.2985V11.7873C13.052 11.7539 13.0448 11.7207 13.0307 11.6898C13.0166 11.659 12.996 11.6309 12.97 11.6072C12.944 11.5836 12.9131 11.5648 12.8792 11.552C12.8452 11.5392 12.8088 11.5326 12.772 11.5326H9.965ZM16.14 12.0429C16.14 11.62 16.517 11.277 16.982 11.277H23.158C23.3813 11.277 23.5955 11.3577 23.7534 11.5014C23.9113 11.645 24 11.8398 24 12.0429C24 12.246 23.9113 12.4408 23.7534 12.5844C23.5955 12.7281 23.3813 12.8088 23.158 12.8088H16.982C16.7587 12.8088 16.5445 12.7281 16.3866 12.5844C16.2287 12.4408 16.14 12.246 16.14 12.0429ZM8.28 16.6381C8.28 16.2151 8.658 15.8722 9.123 15.8722H19.79C19.9006 15.8722 20.0101 15.892 20.1122 15.9305C20.2144 15.969 20.3072 16.0254 20.3854 16.0965C20.4636 16.1676 20.5256 16.2521 20.5679 16.345C20.6102 16.4379 20.632 16.5375 20.632 16.6381C20.632 16.7386 20.6102 16.8382 20.5679 16.9311C20.5256 17.0241 20.4636 17.1085 20.3854 17.1796C20.3072 17.2507 20.2144 17.3071 20.1122 17.3456C20.0101 17.3841 19.9006 17.4039 19.79 17.4039H9.123C9.01243 17.4039 8.90294 17.3841 8.80078 17.3456C8.69862 17.3071 8.6058 17.2507 8.52762 17.1796C8.44943 17.1085 8.38741 17.0241 8.34509 16.9311C8.30278 16.8382 8.28 16.7386 8.28 16.6381ZM8.28 21.2332C8.28 20.8112 8.658 20.4683 9.123 20.4683H22.597C22.7076 20.4683 22.8171 20.4881 22.9192 20.5266C23.0214 20.5651 23.1142 20.6215 23.1924 20.6926C23.2706 20.7637 23.3326 20.8481 23.3749 20.9411C23.4172 21.034 23.439 21.1336 23.439 21.2341C23.439 21.3347 23.4172 21.4343 23.3749 21.5272C23.3326 21.6201 23.2706 21.7046 23.1924 21.7757C23.1142 21.8468 23.0214 21.9032 22.9192 21.9417C22.8171 21.9802 22.7076 22 22.597 22H9.123C8.89969 22 8.68552 21.9193 8.52762 21.7757C8.36971 21.6321 8.281 21.4373 8.281 21.2341L8.28 21.2332Z" fill="white"/>
<path d="M22.877 17.1401C22.9876 17.1401 23.0971 17.1183 23.1992 17.076C23.3014 17.0336 23.3942 16.9716 23.4724 16.8934C23.5506 16.8153 23.6126 16.7224 23.6549 16.6203C23.6972 16.5181 23.719 16.4086 23.719 16.2981C23.719 16.1875 23.6972 16.078 23.6549 15.9758C23.6126 15.8737 23.5506 15.7809 23.4724 15.7027C23.3942 15.6245 23.3014 15.5625 23.1992 15.5201C23.0971 15.4778 22.9876 15.4561 22.877 15.4561C22.6537 15.4561 22.4395 15.5448 22.2816 15.7027C22.1237 15.8606 22.035 16.0747 22.035 16.2981C22.035 16.5214 22.1237 16.7355 22.2816 16.8934C22.4395 17.0513 22.6537 17.1401 22.877 17.1401Z" fill="white"/>
</svg>
