<svg width="32" height="32" viewBox="0 0 32 32" fill="none" xmlns="http://www.w3.org/2000/svg">
<rect width="32" height="32" rx="16" fill="#F6CB73"/>
<path d="M23.4196 21.1417H22.259V19.9988H22.8393V17.7132H20.518V18.2846H19.3574V17.1417C19.3574 16.9902 19.4186 16.8448 19.5274 16.7377C19.6362 16.6305 19.7838 16.5703 19.9377 16.5703H23.4196C23.5735 16.5703 23.7211 16.6305 23.8299 16.7377C23.9388 16.8448 23.9999 16.9902 23.9999 17.1417V20.5702C23.9999 20.7218 23.9388 20.8671 23.8299 20.9743C23.7211 21.0815 23.5735 21.1417 23.4196 21.1417Z" fill="white"/>
<path d="M20.5186 24.0002H17.0367C16.8828 24.0002 16.7352 23.94 16.6264 23.8329C16.5175 23.7257 16.4564 23.5804 16.4564 23.4288V20.0003C16.4564 19.8487 16.5175 19.7034 16.6264 19.5962C16.7352 19.4891 16.8828 19.4289 17.0367 19.4289H20.5186C20.6725 19.4289 20.8201 19.4891 20.9289 19.5962C21.0377 19.7034 21.0989 19.8487 21.0989 20.0003V23.4288C21.0989 23.5804 21.0377 23.7257 20.9289 23.8329C20.8201 23.94 20.6725 24.0002 20.5186 24.0002ZM17.617 22.8574H19.9382V20.5717H17.617V22.8574ZM15.2958 18.2049C14.8765 18.0973 14.4962 17.8761 14.1982 17.5663C13.9001 17.2566 13.6962 16.8708 13.6097 16.4528C13.5231 16.0347 13.5573 15.6011 13.7085 15.2012C13.8596 14.8013 14.1215 14.4512 14.4646 14.1905C14.8077 13.9299 15.2181 13.7692 15.6492 13.7266C16.0804 13.6841 16.515 13.7615 16.9038 13.95C17.2925 14.1385 17.6198 14.4305 17.8484 14.7929C18.0771 15.1554 18.198 15.5737 18.1973 16.0004H19.3579C19.3586 15.3465 19.1694 14.7062 18.8126 14.1547C18.4559 13.6033 17.9464 13.1638 17.3444 12.8881C16.7423 12.6124 16.0728 12.512 15.4146 12.5986C14.7565 12.6853 14.1372 12.9554 13.6299 13.3772C13.1226 13.799 12.7483 14.3548 12.5512 14.9791C12.3541 15.6035 12.3424 16.2703 12.5175 16.901C12.6926 17.5317 13.0471 18.0999 13.5394 18.5387C14.0317 18.9774 14.6411 19.2685 15.2958 19.3774V18.2049Z" fill="white"/>
<path d="M23.3559 14.5999L22.0153 15.7599L21.1913 14.9485L22.5899 13.737L21.2203 11.4057L19.2241 12.0685C18.7564 11.6852 18.2268 11.382 17.6572 11.1714L17.2452 9.14284H14.5061L14.0941 11.1714C13.52 11.3761 12.9874 11.6799 12.5215 12.0685L10.531 11.4057L9.1615 13.737L10.7399 15.1027C10.6326 15.6942 10.6326 16.2998 10.7399 16.8913L9.1615 18.2627L10.531 20.5941L12.5273 19.9312C12.9949 20.3145 13.5245 20.6178 14.0941 20.8284L14.5061 22.8569H15.2954V23.9997H14.5061C14.2378 23.9995 13.9778 23.9077 13.7704 23.74C13.563 23.5723 13.4211 23.3389 13.3687 23.0798L13.0728 21.6398C12.8101 21.5136 12.5561 21.3704 12.3126 21.2112L10.9024 21.6798C10.7825 21.7182 10.6571 21.7375 10.531 21.7369C10.3272 21.7383 10.1267 21.6861 9.95016 21.5856C9.77367 21.4852 9.62762 21.3401 9.52709 21.1655L8.15756 18.8341C8.02211 18.605 7.97178 18.3366 8.01518 18.0749C8.05859 17.8133 8.19303 17.5746 8.39549 17.3998L9.50968 16.4399C9.49808 16.2913 9.49227 16.1484 9.49227 15.9999C9.49227 15.8513 9.50388 15.7084 9.51549 15.5656L8.39549 14.5999C8.19303 14.4251 8.05859 14.1865 8.01518 13.9248C7.97178 13.6631 8.02211 13.3948 8.15756 13.1656L9.52709 10.8342C9.62762 10.6596 9.77367 10.5146 9.95016 10.4141C10.1267 10.3137 10.3272 10.2614 10.531 10.2628C10.6571 10.2622 10.7825 10.2815 10.9024 10.32L12.3068 10.7885C12.5523 10.6293 12.8082 10.4861 13.0728 10.36L13.3687 8.91998C13.4211 8.6608 13.563 8.42747 13.7704 8.25974C13.9778 8.092 14.2378 8.00021 14.5061 8H17.2452C17.5136 8.00021 17.7736 8.092 17.981 8.25974C18.1883 8.42747 18.3303 8.6608 18.3826 8.91998L18.6786 10.36C18.9413 10.4861 19.1953 10.6293 19.4388 10.7885L20.8489 10.32C20.9688 10.2815 21.0942 10.2622 21.2203 10.2628C21.4242 10.2614 21.6247 10.3137 21.8012 10.4141C21.9777 10.5146 22.1237 10.6596 22.2243 10.8342L23.5938 13.1656C23.7292 13.3948 23.7796 13.6631 23.7362 13.9248C23.6928 14.1865 23.5583 14.4251 23.3559 14.5999Z" fill="white"/>
</svg>
