<svg width="48" height="48" viewBox="0 0 48 48" fill="none" xmlns="http://www.w3.org/2000/svg">
<rect width="48" height="48" rx="8" fill="#837EDE"/>
<path d="M35.0913 18.2096L29.791 12.9094C29.2351 12.3539 28.4894 12.0296 27.704 12.0019C26.9186 11.9743 26.152 12.2452 25.5584 12.7603C24.9649 13.2754 24.5886 13.9962 24.5053 14.7776C24.4221 15.5591 24.6381 16.343 25.1099 16.9715L24.8642 17.2482L19.9812 19.3932L17.8506 18.2419C17.618 18.1166 17.3506 18.0714 17.0897 18.1133C16.8289 18.1553 16.5891 18.2819 16.4075 18.4738L14.3301 20.674C14.1143 20.9003 13.9958 21.2024 14.0003 21.5151C14.0048 21.8279 14.1318 22.1264 14.3541 22.3465L19.4384 27.4305L12 34.8686V36H13.1314L20.5697 28.5619L25.6307 33.6228C25.8497 33.843 26.1457 33.9695 26.4562 33.9755C26.7667 33.9815 27.0673 33.8665 27.2946 33.6549L29.5159 31.5984C29.712 31.4172 29.842 31.1756 29.8853 30.9121C29.9285 30.6486 29.8825 30.3782 29.7546 30.1438L28.5874 28.0009L30.694 23.475L31.124 22.9591C31.7616 23.4007 32.5413 23.5879 33.3099 23.4838C34.0785 23.3798 34.7804 22.992 35.2776 22.3968C35.7748 21.8015 36.0314 21.0418 35.9969 20.267C35.9624 19.4922 35.6394 18.7583 35.0913 18.2096ZM33.9598 21.4712C33.6773 21.7536 33.2942 21.9123 32.8947 21.9123C32.4953 21.9123 32.1122 21.7536 31.8297 21.4712L30.9854 20.6269L29.3313 22.6108L26.7962 28.0576L28.2006 30.636L26.49 32.2195L15.7602 21.4899L17.3603 19.7954L19.9089 21.1726L25.8285 18.5721L27.2874 16.9289L26.5295 16.1709C26.2538 15.887 26.1009 15.5061 26.1039 15.1104C26.1068 14.7148 26.2652 14.3361 26.545 14.0564C26.8248 13.7766 27.2035 13.6181 27.5991 13.6152C27.9948 13.6123 28.3757 13.7652 28.6596 14.0408L33.9599 19.3409C34.2423 19.6234 34.401 20.0065 34.401 20.406C34.401 20.8054 34.2423 21.1885 33.9599 21.471L33.9598 21.4712Z" fill="white"/>
</svg>
