<svg width="16" height="16" viewBox="0 0 16 16" fill="none" xmlns="http://www.w3.org/2000/svg">
<g clip-path="url(#clip0_221_1056)">
<path d="M8.41746 0.774087L8.41817 0.775596L10.3664 4.90951L10.4801 5.15058L10.7435 5.19066L15.0964 5.8529C15.0965 5.85292 15.0966 5.85294 15.0968 5.85296C15.2654 5.87919 15.4157 6.00305 15.4754 6.18939C15.5344 6.37358 15.4847 6.57647 15.3552 6.70842L15.3551 6.70861L12.1978 9.93013L12.0204 10.1111L12.0615 10.3612L12.8097 14.9125C12.8098 14.9127 12.8098 14.9128 12.8098 14.913C12.8409 15.1067 12.7617 15.2988 12.6124 15.4107C12.4721 15.516 12.2866 15.5296 12.1283 15.4439C12.128 15.4438 12.1277 15.4436 12.1273 15.4434L8.24201 13.3042L8.00085 13.1714L7.7597 13.3042L3.87437 15.4434C3.87406 15.4436 3.87376 15.4438 3.87346 15.4439C3.71793 15.5281 3.53059 15.5152 3.38657 15.4087C3.24162 15.3015 3.16046 15.1087 3.19191 14.913C3.19193 14.9128 3.19196 14.9126 3.19199 14.9125L3.9372 10.3609L3.97811 10.111L3.80086 9.93013L0.643626 6.70861L0.643437 6.70842C0.516172 6.5787 0.465361 6.3752 0.524469 6.18574C0.58083 6.00509 0.730679 5.87962 0.901861 5.85297C0.902007 5.85294 0.902152 5.85292 0.902298 5.8529L5.25217 5.19065L5.5156 5.15055L5.6292 4.90951L7.57665 0.777346C7.57676 0.777102 7.57688 0.776857 7.577 0.776613C7.66138 0.60004 7.82639 0.5 7.99782 0.5C8.17188 0.5 8.33717 0.602228 8.41746 0.774087Z" fill="#F6CB73" stroke="#F6CB73"/>
</g>
<defs>
<clipPath id="clip0_221_1056">
<rect width="16" height="16" fill="white"/>
</clipPath>
</defs>
</svg>
