<svg width="40" height="40" viewBox="0 0 40 40" fill="none" xmlns="http://www.w3.org/2000/svg">
<rect width="40" height="40" rx="20" fill="#837EDE"/>
<path d="M20.3 15.29C20.5 15.11 20.74 15 21 15C21.27 15 21.5 15.11 21.71 15.29C21.9 15.5 22 15.74 22 16C22 16.27 21.9 16.5 21.71 16.71C21.5 16.9 21.27 17 21 17C20.74 17 20.5 16.9 20.3 16.71C20.11 16.5 20 16.27 20 16C20 15.74 20.11 15.5 20.3 15.29ZM17.8 19.97C17.8 19.97 19.97 18.25 20.76 18.18C21.5 18.12 21.35 18.97 21.28 19.41L21.27 19.47C21.13 20 20.96 20.64 20.79 21.25C20.41 22.64 20.04 24 20.13 24.25C20.23 24.59 20.85 24.16 21.3 23.86C21.36 23.82 21.41 23.78 21.46 23.75C21.46 23.75 21.54 23.67 21.62 23.78C21.64 23.81 21.66 23.84 21.68 23.86C21.77 24 21.82 24.05 21.7 24.13L21.66 24.15C21.44 24.3 20.5 24.96 20.12 25.2C19.71 25.47 18.14 26.37 18.38 24.62C18.59 23.39 18.87 22.33 19.09 21.5C19.5 20 19.68 19.32 18.76 19.91C18.39 20.13 18.17 20.27 18.04 20.36C17.93 20.44 17.92 20.44 17.85 20.31L17.82 20.25L17.77 20.17C17.7 20.07 17.7 20.06 17.8 19.97ZM30 20C30 25.5 25.5 30 20 30C14.5 30 10 25.5 10 20C10 14.5 14.5 10 20 10C25.5 10 30 14.5 30 20ZM28 20C28 15.58 24.42 12 20 12C15.58 12 12 15.58 12 20C12 24.42 15.58 28 20 28C24.42 28 28 24.42 28 20Z" fill="white"/>
</svg>
