<svg width="40" height="40" viewBox="0 0 40 40" fill="none" xmlns="http://www.w3.org/2000/svg">
<rect width="40" height="40" rx="20" fill="#837EDE"/>
<path d="M10 30H12.2222M12.2222 30H27.7778M12.2222 30V17.0311M30 30H27.7778M27.7778 30V17.0311M12.2222 17.0311C12.1807 17.0072 12.1399 16.9821 12.1 16.9556L11.5 16.5556C11.0758 16.2726 10.7619 15.8525 10.6107 15.3655C10.4596 14.8786 10.4805 14.3545 10.67 13.8811L11.6633 11.3967C11.8283 10.9843 12.1131 10.6309 12.4808 10.382C12.8486 10.133 13.2826 9.99997 13.7267 10H26.2733C26.7174 9.99997 27.1514 10.133 27.5192 10.382C27.8869 10.6309 28.1717 10.9843 28.3367 11.3967L29.33 13.8811C29.5195 14.3545 29.5404 14.8786 29.3893 15.3655C29.2381 15.8525 28.9242 16.2726 28.5 16.5556L27.9 16.9556C27.8601 16.9821 27.8193 17.0072 27.7778 17.0311M12.2222 17.0311C12.5812 17.2384 12.9909 17.3412 13.4052 17.3279C13.8195 17.3145 14.2218 17.1855 14.5667 16.9556L16.6667 15.5556L18.7667 16.9556C19.1318 17.1992 19.561 17.3292 20 17.3292C20.439 17.3292 20.8682 17.1992 21.2333 16.9556L23.3333 15.5556L25.4333 16.9556C25.7782 17.1855 26.1805 17.3145 26.5948 17.3279C27.0091 17.3412 27.4188 17.2384 27.7778 17.0311" stroke="white" stroke-width="1.5" stroke-linecap="round" stroke-linejoin="round"/>
<path d="M22.2222 29.9999V24.4444C22.2222 23.855 21.9881 23.2898 21.5713 22.873C21.1546 22.4563 20.5894 22.2222 20 22.2222C19.4106 22.2222 18.8454 22.4563 18.4286 22.873C18.0119 23.2898 17.7778 23.855 17.7778 24.4444V29.9999" stroke="white" stroke-width="1.5"/>
</svg>
