<svg width="40" height="40" viewBox="0 0 40 40" fill="none" xmlns="http://www.w3.org/2000/svg">
<rect width="40" height="40" rx="20" fill="#837EDE"/>
<path d="M13.3383 15.8333C13.3383 15.3913 13.5139 14.9674 13.8265 14.6548C14.139 14.3423 14.563 14.1667 15.005 14.1667H25.005C25.447 14.1667 25.871 14.3423 26.1835 14.6548C26.4961 14.9674 26.6717 15.3913 26.6717 15.8333V18.3333C26.6717 18.7754 26.4961 19.1993 26.1835 19.5118C25.871 19.8244 25.447 20 25.005 20H15.005C14.563 20 14.139 19.8244 13.8265 19.5118C13.5139 19.1993 13.3383 18.7754 13.3383 18.3333V15.8333ZM25.005 15.8333H15.005V18.3333H25.005V15.8333ZM22.505 21.6667C22.063 21.6667 21.639 21.8423 21.3265 22.1548C21.0139 22.4674 20.8383 22.8913 20.8383 23.3333V25C20.8383 25.442 21.0139 25.8659 21.3265 26.1785C21.639 26.4911 22.063 26.6667 22.505 26.6667H25.005C25.447 26.6667 25.871 26.4911 26.1835 26.1785C26.4961 25.8659 26.6717 25.442 26.6717 25V23.3333C26.6717 22.8913 26.4961 22.4674 26.1835 22.1548C25.871 21.8423 25.447 21.6667 25.005 21.6667H22.505ZM22.505 23.3333H25.005V25H22.505V23.3333ZM13.3383 22.5C13.3383 22.279 13.4261 22.067 13.5824 21.9107C13.7387 21.7545 13.9507 21.6667 14.1717 21.6667H18.3383C18.5593 21.6667 18.7713 21.7545 18.9276 21.9107C19.0839 22.067 19.1717 22.279 19.1717 22.5C19.1717 22.721 19.0839 22.933 18.9276 23.0893C18.7713 23.2455 18.5593 23.3333 18.3383 23.3333H14.1717C13.9507 23.3333 13.7387 23.2455 13.5824 23.0893C13.4261 22.933 13.3383 22.721 13.3383 22.5ZM14.1717 25C13.9507 25 13.7387 25.0878 13.5824 25.2441C13.4261 25.4004 13.3383 25.6123 13.3383 25.8333C13.3383 26.0543 13.4261 26.2663 13.5824 26.4226C13.7387 26.5789 13.9507 26.6667 14.1717 26.6667H18.3383C18.5593 26.6667 18.7713 26.5789 18.9276 26.4226C19.0839 26.2663 19.1717 26.0543 19.1717 25.8333C19.1717 25.6123 19.0839 25.4004 18.9276 25.2441C18.7713 25.0878 18.5593 25 18.3383 25H14.1717ZM14.1667 10C13.0616 10 12.0018 10.439 11.2204 11.2204C10.439 12.0018 10 13.0616 10 14.1667V25.8333C10 26.9384 10.439 27.9982 11.2204 28.7796C12.0018 29.561 13.0616 30 14.1667 30H25.8333C26.9384 30 27.9982 29.561 28.7796 28.7796C29.561 27.9982 30 26.9384 30 25.8333V14.1667C30 13.0616 29.561 12.0018 28.7796 11.2204C27.9982 10.439 26.9384 10 25.8333 10H14.1667ZM11.6667 14.1667C11.6667 13.5036 11.9301 12.8677 12.3989 12.3989C12.8677 11.9301 13.5036 11.6667 14.1667 11.6667H25.8333C26.4964 11.6667 27.1323 11.9301 27.6011 12.3989C28.0699 12.8677 28.3333 13.5036 28.3333 14.1667V25.8333C28.3333 26.4964 28.0699 27.1323 27.6011 27.6011C27.1323 28.0699 26.4964 28.3333 25.8333 28.3333H14.1667C13.5036 28.3333 12.8677 28.0699 12.3989 27.6011C11.9301 27.1323 11.6667 26.4964 11.6667 25.8333V14.1667Z" fill="white"/>
</svg>
