<svg width="40" height="40" viewBox="0 0 40 40" fill="none" xmlns="http://www.w3.org/2000/svg">
<rect width="40" height="40" rx="20" fill="#837EDE"/>
<path d="M29.2747 26.4281H27.8239V24.9995H28.5493V22.1424H25.6478V22.8567H24.197V21.4281C24.197 21.2387 24.2734 21.057 24.4095 20.9231C24.5455 20.7891 24.73 20.7139 24.9224 20.7139H29.2747C29.4671 20.7139 29.6516 20.7891 29.7876 20.9231C29.9237 21.057 30.0001 21.2387 30.0001 21.4281V25.7138C30.0001 25.9033 29.9237 26.0849 29.7876 26.2189C29.6516 26.3529 29.4671 26.4281 29.2747 26.4281Z" fill="white"/>
<path d="M25.6478 30.0004H21.2955C21.1031 30.0004 20.9186 29.9251 20.7826 29.7912C20.6465 29.6572 20.5701 29.4756 20.5701 29.2861V25.0004C20.5701 24.811 20.6465 24.6293 20.7826 24.4954C20.9186 24.3614 21.1031 24.2862 21.2955 24.2862H25.6478C25.8402 24.2862 26.0247 24.3614 26.1607 24.4954C26.2968 24.6293 26.3732 24.811 26.3732 25.0004V29.2861C26.3732 29.4756 26.2968 29.6572 26.1607 29.7912C26.0247 29.9251 25.8402 30.0004 25.6478 30.0004ZM22.0209 28.5718H24.9224V25.7147H22.0209V28.5718ZM19.1193 22.7562C18.5952 22.6217 18.1199 22.3451 17.7473 21.958C17.3748 21.5708 17.1199 21.0886 17.0117 20.566C16.9035 20.0434 16.9463 19.5014 17.1352 19.0015C17.3241 18.5017 17.6516 18.064 18.0804 17.7382C18.5092 17.4123 19.0222 17.2115 19.5612 17.1583C20.1001 17.1052 20.6434 17.2019 21.1293 17.4375C21.6153 17.6731 22.0244 18.0382 22.3102 18.4912C22.596 18.9442 22.7471 19.4671 22.7463 20.0005H24.197C24.1979 19.1832 23.9614 18.3827 23.5154 17.6934C23.0695 17.0042 22.4327 16.4548 21.6801 16.1102C20.9275 15.7655 20.0906 15.6399 19.2679 15.7483C18.4453 15.8566 17.6712 16.1943 17.037 16.7215C16.4028 17.2487 15.935 17.9435 15.6886 18.724C15.4422 19.5044 15.4276 20.3379 15.6465 21.1263C15.8654 21.9146 16.3086 22.6249 16.9239 23.1734C17.5392 23.7219 18.301 24.0857 19.1193 24.2219V22.7562Z" fill="white"/>
<path d="M29.1947 18.2499L27.5191 19.6999L26.4891 18.6856L28.2372 17.1714L26.5253 14.2571L24.03 15.0857C23.4455 14.6066 22.7835 14.2275 22.0715 13.9643L21.5565 11.4286H18.1326L17.6176 13.9643C16.8999 14.2201 16.2343 14.5999 15.6518 15.0857L13.1638 14.2571L11.4519 17.1714L13.4249 18.8785C13.2907 19.6179 13.2907 20.3748 13.4249 21.1142L11.4519 22.8285L13.1638 25.7427L15.6591 24.9142C16.2436 25.3933 16.9057 25.7723 17.6176 26.0356L18.1326 28.5713H19.1192V29.9998H18.1326C17.7972 29.9996 17.4722 29.8848 17.213 29.6752C16.9537 29.4655 16.7763 29.1738 16.7109 28.8498L16.341 27.0499C16.0125 26.8921 15.6951 26.7132 15.3907 26.5142L13.628 27.0999C13.4781 27.1479 13.3214 27.172 13.1638 27.1713C12.909 27.173 12.6583 27.1077 12.4377 26.9822C12.2171 26.8566 12.0345 26.6753 11.9089 26.457L10.197 23.5427C10.0276 23.2563 9.96472 22.9209 10.019 22.5938C10.0732 22.2667 10.2413 21.9684 10.4944 21.7499L11.8871 20.5499C11.8726 20.3642 11.8653 20.1856 11.8653 19.9999C11.8653 19.8142 11.8798 19.6356 11.8943 19.4571L10.4944 18.2499C10.2413 18.0315 10.0732 17.7331 10.019 17.4061C9.96472 17.079 10.0276 16.7435 10.197 16.4571L11.9089 13.5428C12.0345 13.3245 12.2171 13.1433 12.4377 13.0177C12.6583 12.8921 12.909 12.8268 13.1638 12.8285C13.3214 12.8278 13.4781 12.8519 13.628 12.9L15.3834 13.4857C15.6903 13.2866 16.0102 13.1077 16.341 12.95L16.7109 11.15C16.7763 10.826 16.9537 10.5343 17.213 10.3247C17.4722 10.115 17.7972 10.0003 18.1326 10H21.5565C21.8919 10.0003 22.2169 10.115 22.4762 10.3247C22.7354 10.5343 22.9128 10.826 22.9782 11.15L23.3482 12.95C23.6766 13.1077 23.994 13.2867 24.2984 13.4857L26.0611 12.9C26.211 12.8519 26.3677 12.8278 26.5253 12.8285C26.7801 12.8268 27.0308 12.8921 27.2514 13.0177C27.472 13.1433 27.6546 13.3245 27.7803 13.5428L29.4922 16.4571C29.6615 16.7435 29.7244 17.079 29.6701 17.4061C29.6159 17.7331 29.4478 18.0315 29.1947 18.2499Z" fill="white"/>
</svg>
