<svg width="40" height="40" viewBox="0 0 40 40" fill="none" xmlns="http://www.w3.org/2000/svg">
<rect width="40" height="40" rx="20" fill="#837EDE"/>
<path d="M20 10C20.918 10 21.8034 10.1172 22.6562 10.3516C23.5091 10.5859 24.3066 10.9212 25.0488 11.3574C25.791 11.7936 26.4648 12.3145 27.0703 12.9199C27.6758 13.5254 28.1966 14.2025 28.6328 14.9512C29.069 15.6999 29.4043 16.4974 29.6387 17.3438C29.873 18.1901 29.9935 19.0755 30 20C30 20.918 29.8828 21.8034 29.6484 22.6562C29.4141 23.5091 29.0788 24.3066 28.6426 25.0488C28.2064 25.791 27.6855 26.4648 27.0801 27.0703C26.4746 27.6758 25.7975 28.1966 25.0488 28.6328C24.3001 29.069 23.5026 29.4043 22.6562 29.6387C21.8099 29.873 20.9245 29.9935 20 30C19.082 30 18.1966 29.8828 17.3438 29.6484C16.4909 29.4141 15.6934 29.0788 14.9512 28.6426C14.209 28.2064 13.5352 27.6855 12.9297 27.0801C12.3242 26.4746 11.8034 25.7975 11.3672 25.0488C10.931 24.3001 10.5957 23.5059 10.3613 22.666C10.127 21.8262 10.0065 20.9375 10 20C10 19.082 10.1172 18.1966 10.3516 17.3438C10.5859 16.4909 10.9212 15.6934 11.3574 14.9512C11.7936 14.209 12.3145 13.5352 12.9199 12.9297C13.5254 12.3242 14.2025 11.8034 14.9512 11.3672C15.6999 10.931 16.4941 10.5957 17.334 10.3613C18.1738 10.127 19.0625 10.0065 20 10ZM20 28.75C20.8008 28.75 21.5723 28.6458 22.3145 28.4375C23.0566 28.2292 23.7533 27.9362 24.4043 27.5586C25.0553 27.181 25.6478 26.722 26.1816 26.1816C26.7155 25.6413 27.1712 25.0521 27.5488 24.4141C27.9264 23.776 28.2227 23.0794 28.4375 22.3242C28.6523 21.569 28.7565 20.7943 28.75 20C28.75 19.1992 28.6458 18.4277 28.4375 17.6855C28.2292 16.9434 27.9362 16.2467 27.5586 15.5957C27.181 14.9447 26.722 14.3522 26.1816 13.8184C25.6413 13.2845 25.0521 12.8288 24.4141 12.4512C23.776 12.0736 23.0794 11.7773 22.3242 11.5625C21.569 11.3477 20.7943 11.2435 20 11.25C19.1992 11.25 18.4277 11.3542 17.6855 11.5625C16.9434 11.7708 16.2467 12.0638 15.5957 12.4414C14.9447 12.819 14.3522 13.278 13.8184 13.8184C13.2845 14.3587 12.8288 14.9479 12.4512 15.5859C12.0736 16.224 11.7773 16.9206 11.5625 17.6758C11.3477 18.431 11.2435 19.2057 11.25 20C11.25 20.8008 11.3542 21.5723 11.5625 22.3145C11.7708 23.0566 12.0638 23.7533 12.4414 24.4043C12.819 25.0553 13.278 25.6478 13.8184 26.1816C14.3587 26.7155 14.9479 27.1712 15.5859 27.5488C16.224 27.9264 16.9206 28.2227 17.6758 28.4375C18.431 28.6523 19.2057 28.7565 20 28.75ZM25.8301 20.1562L26.2988 18.75H27.0312L26.2012 21.25H25.4688L25 19.8438L24.5312 21.25H23.7988L22.9688 18.75H23.7012L24.1699 20.1562L24.6387 18.75H25.3613L25.8301 20.1562ZM21.2988 18.75H22.0312L21.2012 21.25H20.4688L20 19.8438L19.5312 21.25H18.7988L17.9688 18.75H18.7012L19.1699 20.1562L19.6387 18.75H20.3613L20.8301 20.1562L21.2988 18.75ZM16.2988 18.75H17.0312L16.2012 21.25H15.4688L15 19.8438L14.5312 21.25H13.7988L12.9688 18.75H13.7012L14.1699 20.1562L14.6387 18.75H15.3613L15.8301 20.1562L16.2988 18.75Z" fill="white"/>
</svg>
